<svg viewBox="0 0 1150 780" version="1.1" xmlns="http://www.w3.org/2000/svg">
	<style>
		$color-turf: #53c653;
$color-clay: #7f7c5d;
$color-line: #ffffff;

svg {
  width: 100%;
  & .turf {
    fill: $color-turf;
  }
  & .cell-free {
    fill: $color-clay;
  }
  & .cell-reserved,
  & .cell-free:hover {
    fill: url(#striped);
  }
  & .cell-sold {
    fill: transparent;
  }
  & .stripe {
    stroke: $color-clay;
    stroke-width: 1;
  }
  & .line {
    stroke: $color-line;
    stroke-width: 1.2;
    fill: none;
  }
  & .curve {
    stroke: $color-line;
    stroke-width: 1.2;
    fill: none;
  }
  & .dot {
    stroke: $color-line;
    fill: $color-line;
    r: 1.5;
  }
  & .goal {
    stroke: $color-line;
    stroke-width: 0.75;
    fill: url(#goal);
  }
  & .goal-stripe {
    stroke: $color-line;
    stroke-width: 1;
  }
}
	</style>
  <defs>
    <pattern id="striped" patternUnits="userSpaceOnUse" width="4" height="4">
      <rect x="0" y="0" width="4" height="4" fill="transparent" />
      <path d="M-1,1 l2,-2 M0,4 l4,-4 M3,5 l2,-2" class="stripe" />
    </pattern>
    <pattern id="goal" patternUnits="userSpaceOnUse" width="2" height="2">
      <rect x="0" y="0" width="2" height="2" fill="transparent" />
      <line x1="0" y1="0" x2="1" y2="0" class="goal-stripe" />
      <line x1="1" y1="0" x2="1" y2="1" class="goal-stripe" />
    </pattern>
  </defs>
  <!-- Außenfeld -->
  <path d="M 0,0 h1150 v780 h-1150z" class="turf" />
  <!-- Außenlinien -->
  <polyline points="575,730 575,50 1100,50 1100,730 50,730 50,50 575,50" class="line" />
  <!-- Anstoßkreis -->
  <circle cx="575" cy="390" class="line" r="91.5" />
  <!-- Anstoßpunkt -->
  <circle cx="575" cy="390" class="dot" />
  <!-- Elfmeterpunkte -->
  <circle cx="160" cy="390" class="dot" />
  <circle cx="990" cy="390" class="dot" />
  <path d="M251.5,390 a91.5,91.5 0 0,0 -36.5,-73.4 M251.5,390 a91.5,91.5 0 0,1 -36.5,73.4 M898.5,390 a91.5,95.5 0 0,0 36.5,73.4 M898.5,390 a91.5,95.5 0 0,1 36.5,-73.4" class="line" />
  <!-- Ecken -->
  <path d="M 50 60 Q 60 60 60 50 M 1090 50 Q 1090 60 1100 60 M 50 720 Q 60 720 60 730 M 1090 730 Q 1090 720 1100 720" class="line" />
  <!-- Tore -->
  <polyline points="50,426.6 35,426.6 35,353.4 50,353.4" class="goal" />
  <polyline points="1100,426.6 1115,426.6 1115,353.4 1100,353.4" class="goal" />
  <!-- Torraum / Strafraum-->
  <polyline points="50,481.6 105,481.6 105,298.4 50,298.4 50,591.6 215,591.6 215,188.4 50,188.4" class="line" />
  <polyline points="1100,481.6 1045,481.6 1045,298.4 1100,298.4 1100,591.6 935,591.6 935,188.4 1100,188.4" class="line" />
</svg>
